# xmcd
#
# Track frame offsets:
#	150
#	18032
#	38758
#	59081
#	79547
#
# Disc length: 1425 seconds
#
# Revision: 1
# Processed by: cddbd v1.5.2PL0 Copyright (c) Steve Scherf et al.
# Submitted via: audiograbber 1.83.01
#
DISCID=31058f05
DTITLE=Beth Hart - Introducing Beth Hart
DYEAR=2007
DGENRE=Blues/Rock
TTITLE0=Good As It Gets
TTITLE1=My California
TTITLE2=Sister Heroine (Feat. Slash)
TTITLE3=Soul Shine
TTITLE4=Easy
EXTD=
EXTT0=
EXTT1=
EXTT2=
EXTT3=
EXTT4=
PLAYORDER=
